<svg width="822" height="470" viewBox="0 0 822 470" xmlns="http://www.w3.org/2000/svg"><defs><pattern id="satori_pattern_id_0" x="0" y="0" width="1" height="1" patternUnits="objectBoundingBox"><linearGradient id="satori_biid_0" x1="0" y1="0" x2="0" y2="1"><stop offset="0%" stop-color="#dbf4ff"/><stop offset="100%" stop-color="#fff1f1"/></linearGradient><rect x="0" y="0" width="822" height="470" fill="url(#satori_biid_0)"/></pattern></defs><mask id="satori_om-id"><rect x="0" y="0" width="822" height="470" fill="#fff"/></mask><rect x="0" y="0" width="822" height="470" fill="url(#satori_pattern_id_0)"/><clipPath id="satori_bct-id-0"><path d="M380.3 153.8L380.3 153.8L371.0 153.8Q370.7 152.0 369.9 150.6Q369.1 149.2 367.9 148.2Q366.7 147.2 365.0 146.6Q363.4 146.1 361.6 146.1L361.6 146.1Q358.2 146.1 355.7 147.8Q353.1 149.4 351.8 152.6Q350.4 155.8 350.4 160.3L350.4 160.3Q350.4 165.0 351.8 168.2Q353.2 171.4 355.7 173.0Q358.2 174.6 361.5 174.6L361.5 174.6Q363.4 174.6 364.9 174.1Q366.5 173.6 367.8 172.7Q369.0 171.7 369.8 170.4Q370.6 169.0 371.0 167.2L371.0 167.2L380.3 167.3Q379.9 170.3 378.5 173.1Q377.1 175.9 374.6 178.0Q372.2 180.2 368.9 181.5Q365.5 182.8 361.4 182.8L361.4 182.8Q355.5 182.8 350.9 180.1Q346.3 177.5 343.7 172.5Q341.0 167.5 341.0 160.3L341.0 160.3Q341.0 153.2 343.7 148.2Q346.4 143.2 351.0 140.6Q355.6 137.9 361.4 137.9L361.4 137.9Q365.1 137.9 368.4 139.0Q371.6 140.1 374.2 142.1Q376.7 144.1 378.3 147.1Q379.8 150.0 380.3 153.8ZM384.8 138.5L393.8 138.5L393.8 182.2L384.8 182.2L384.8 138.5ZM408.4 182.8L408.4 182.8Q405.3 182.8 402.8 181.7Q400.4 180.6 399.0 178.4Q397.5 176.3 397.5 173.0L397.5 173.0Q397.5 170.3 398.5 168.4Q399.5 166.6 401.3 165.5Q403.0 164.3 405.2 163.8Q407.4 163.2 409.8 162.9L409.8 162.9Q412.7 162.6 414.4 162.4Q416.2 162.1 417.0 161.6Q417.8 161.0 417.8 160.0L417.8 160.0L417.8 159.9Q417.8 157.8 416.5 156.7Q415.2 155.6 412.9 155.6L412.9 155.6Q410.4 155.6 409.0 156.7Q407.6 157.8 407.1 159.4L407.1 159.4L398.7 158.7Q399.3 155.7 401.2 153.6Q403.1 151.4 406.0 150.2Q409.0 149.0 412.9 149.0L412.9 149.0Q415.7 149.0 418.2 149.6Q420.7 150.3 422.6 151.6Q424.6 153.0 425.7 155.1Q426.8 157.2 426.8 160.1L426.8 160.1L426.8 182.2L418.2 182.2L418.2 177.6L418.0 177.6Q417.2 179.2 415.9 180.3Q414.5 181.5 412.7 182.1Q410.8 182.8 408.4 182.8ZM411.0 176.5L411.0 176.5Q413.0 176.5 414.5 175.7Q416.1 174.9 416.9 173.6Q417.8 172.2 417.8 170.5L417.8 170.5L417.8 167.0Q417.4 167.3 416.7 167.5Q415.9 167.7 415.0 167.9Q414.1 168.1 413.2 168.2Q412.3 168.4 411.5 168.5L411.5 168.5Q409.9 168.7 408.7 169.2Q407.5 169.7 406.9 170.6Q406.2 171.4 406.2 172.7L406.2 172.7Q406.2 174.6 407.6 175.5Q408.9 176.5 411.0 176.5ZM441.0 182.2L431.9 182.2L431.9 149.4L440.7 149.4L440.7 155.1L441.0 155.1Q441.9 152.1 444.0 150.5Q446.1 149.0 448.9 149.0L448.9 149.0Q449.6 149.0 450.4 149.0Q451.1 149.1 451.7 149.3L451.7 149.3L451.7 157.3Q451.1 157.1 450.0 157.0Q448.8 156.8 447.9 156.8L447.9 156.8Q445.9 156.8 444.3 157.7Q442.8 158.6 441.9 160.1Q441.0 161.6 441.0 163.6L441.0 163.6L441.0 182.2ZM468.6 165.9L462.6 172.7L462.7 161.9L464.0 161.9L474.5 149.4L484.9 149.4L470.8 165.9L468.6 165.9ZM463.5 182.2L454.4 182.2L454.4 138.5L463.5 138.5L463.5 182.2ZM485.5 182.2L474.9 182.2L465.2 167.9L471.3 161.5L485.5 182.2Z "/></clipPath><defs><pattern id="satori_pattern_id-0_0" x="0" y="0" width="1" height="1" patternUnits="objectBoundingBox"><linearGradient id="satori_biid-0_0" x1="0" y1="0" x2="1" y2="0"><stop offset="0%" stop-color="rgb(0,124,240)"/><stop offset="100%" stop-color="rgb(0,223,216)"/></linearGradient><rect x="0" y="0" width="146" height="73" fill="url(#satori_biid-0_0)"/></pattern></defs><mask id="satori_om-id-0"><rect x="338" y="126" width="146" height="73" fill="#fff"/></mask><rect x="338" y="126" width="146" height="73" fill="url(#satori_pattern_id-0_0)" clip-path="url(#satori_bct-id-0)"/><clipPath id="satori_bct-id-1"><path d="M372.0 255.8L372.0 255.8Q368.8 255.8 366.4 254.7Q363.9 253.6 362.5 251.4Q361.1 249.3 361.1 246.0L361.1 246.0Q361.1 243.3 362.1 241.4Q363.1 239.6 364.8 238.5Q366.5 237.3 368.7 236.8Q371.0 236.2 373.4 235.9L373.4 235.9Q376.2 235.6 378.0 235.4Q379.7 235.1 380.5 234.6Q381.3 234.0 381.3 233.0L381.3 233.0L381.3 232.9Q381.3 230.8 380.0 229.7Q378.8 228.6 376.5 228.6L376.5 228.6Q374 228.6 372.6 229.7Q371.1 230.8 370.6 232.4L370.6 232.4L362.2 231.7Q362.9 228.7 364.8 226.6Q366.6 224.4 369.6 223.2Q372.6 222.0 376.5 222.0L376.5 222.0Q379.2 222.0 381.7 222.6Q384.2 223.3 386.2 224.6Q388.1 226.0 389.3 228.1Q390.4 230.2 390.4 233.1L390.4 233.1L390.4 255.2L381.8 255.2L381.8 250.6L381.5 250.6Q380.7 252.2 379.4 253.3Q378.1 254.5 376.2 255.1Q374.4 255.8 372.0 255.8ZM374.6 249.5L374.6 249.5Q376.6 249.5 378.1 248.7Q379.6 247.9 380.5 246.6Q381.4 245.2 381.4 243.5L381.4 243.5L381.4 240.0Q380.9 240.3 380.2 240.5Q379.5 240.7 378.6 240.9Q377.6 241.1 376.7 241.2Q375.8 241.4 375.1 241.5L375.1 241.5Q373.5 241.7 372.3 242.2Q371.1 242.7 370.4 243.6Q369.8 244.4 369.8 245.7L369.8 245.7Q369.8 247.6 371.1 248.5Q372.5 249.5 374.6 249.5ZM404.5 236.2L404.5 236.2L404.5 255.2L395.4 255.2L395.4 222.4L404.1 222.4L404.1 228.2L404.5 228.2Q405.6 225.4 408.1 223.7Q410.7 222.0 414.3 222.0L414.3 222.0Q417.7 222.0 420.3 223.5Q422.8 225.0 424.2 227.7Q425.6 230.5 425.6 234.3L425.6 234.3L425.6 255.2L416.5 255.2L416.5 235.9Q416.6 232.9 415.0 231.2Q413.4 229.5 410.7 229.5L410.7 229.5Q408.9 229.5 407.5 230.3Q406.1 231.1 405.3 232.6Q404.5 234.1 404.5 236.2ZM442.8 255.7L442.8 255.7Q439.1 255.7 436.1 253.8Q433.0 251.8 431.3 248.1Q429.5 244.3 429.5 238.8L429.5 238.8Q429.5 233.2 431.3 229.5Q433.2 225.7 436.2 223.9Q439.2 222.0 442.8 222.0L442.8 222.0Q445.5 222.0 447.4 222.9Q449.2 223.9 450.4 225.2Q451.5 226.6 452.1 227.9L452.1 227.9L452.4 227.9L452.4 211.5L461.4 211.5L461.4 255.2L452.5 255.2L452.5 249.9L452.1 249.9Q451.5 251.3 450.3 252.6Q449.1 253.9 447.3 254.8Q445.4 255.7 442.8 255.7ZM445.7 248.5L445.7 248.5Q447.9 248.5 449.4 247.3Q450.9 246.1 451.7 243.9Q452.6 241.7 452.6 238.8L452.6 238.8Q452.6 235.9 451.8 233.7Q450.9 231.6 449.4 230.4Q447.9 229.2 445.7 229.2L445.7 229.2Q443.4 229.2 441.9 230.4Q440.4 231.7 439.6 233.8Q438.8 236.0 438.8 238.8L438.8 238.8Q438.8 241.7 439.6 243.8Q440.4 246.0 441.9 247.2Q443.4 248.5 445.7 248.5Z "/></clipPath><defs><pattern id="satori_pattern_id-1_0" x="0" y="0" width="1" height="1" patternUnits="objectBoundingBox"><linearGradient id="satori_biid-1_0" x1="0" y1="0" x2="1" y2="0"><stop offset="0%" stop-color="rgb(121,40,202)"/><stop offset="100%" stop-color="rgb(255,0,128)"/></linearGradient><rect x="0" y="0" width="104" height="72" fill="url(#satori_biid-1_0)"/></pattern></defs><mask id="satori_om-id-1"><rect x="359" y="199" width="104" height="72" fill="#fff"/></mask><rect x="359" y="199" width="104" height="72" fill="url(#satori_pattern_id-1_0)" clip-path="url(#satori_bct-id-1)"/><clipPath id="satori_bct-id-2"><path d="M369.3 293.5L358.3 327.2L348.4 327.2L363.5 283.5L375.4 283.5L390.4 327.2L380.5 327.2L369.6 293.5L369.3 293.5ZM357.7 317.2L357.7 310.0L381.0 310.0L381.0 317.2L357.7 317.2ZM402.6 327.2L393.5 327.2L393.5 294.4L402.1 294.4L402.1 300.2L402.5 300.2Q403.6 297.3 405.9 295.7Q408.3 294.0 411.6 294.0L411.6 294.0Q415.0 294.0 417.4 295.7Q419.7 297.4 420.5 300.2L420.5 300.2L420.9 300.2Q421.9 297.4 424.5 295.7Q427.1 294.0 430.7 294.0L430.7 294.0Q435.3 294.0 438.2 296.9Q441.1 299.8 441.1 305.2L441.1 305.2L441.1 327.2L432.0 327.2L432.0 306.9Q432.0 304.2 430.5 302.8Q429.1 301.5 426.9 301.5L426.9 301.5Q424.5 301.5 423.1 303.1Q421.7 304.6 421.7 307.2L421.7 307.2L421.7 327.2L412.9 327.2L412.9 306.7Q412.9 304.3 411.5 302.9Q410.1 301.5 407.9 301.5L407.9 301.5Q406.4 301.5 405.2 302.2Q404.0 303.0 403.3 304.4Q402.6 305.7 402.6 307.5L402.6 307.5L402.6 327.2ZM450.6 339.4L450.6 339.4Q448.9 339.4 447.4 339.2Q445.9 338.9 444.9 338.5L444.9 338.5L447.0 331.7Q448.6 332.2 449.8 332.3Q451.1 332.3 452.1 331.7Q453.0 331.0 453.6 329.5L453.6 329.5L454.2 328.1L442.4 294.4L452.0 294.4L458.7 318.5L459.1 318.5L465.9 294.4L475.5 294.4L462.8 330.7Q461.9 333.3 460.3 335.3Q458.8 337.3 456.4 338.4Q454.0 339.4 450.6 339.4Z "/></clipPath><defs><pattern id="satori_pattern_id-2_0" x="0" y="0" width="1" height="1" patternUnits="objectBoundingBox"><linearGradient id="satori_biid-2_0" x1="0" y1="0" x2="1" y2="0"><stop offset="0%" stop-color="rgb(255,77,77)"/><stop offset="100%" stop-color="rgb(249,203,40)"/></linearGradient><rect x="0" y="0" width="128" height="73" fill="url(#satori_biid-2_0)"/></pattern></defs><mask id="satori_om-id-2"><rect x="347" y="271" width="128" height="73" fill="#fff"/></mask><rect x="347" y="271" width="128" height="73" fill="url(#satori_pattern_id-2_0)" clip-path="url(#satori_bct-id-2)"/></svg>