<svg width="822" height="470" viewBox="0 0 822 470" xmlns="http://www.w3.org/2000/svg">
    <mask id="satori_om-id">
        <rect x="0" y="0" width="822" height="470" fill="#fff"></rect>
    </mask>
    <rect x="0" y="0" width="822" height="470" fill="#fff"></rect>
    <mask id="satori_om-id-0">
        <rect x="84" y="219" width="654" height="72" fill="#fff"></rect>
    </mask>
    <path fill="black"
        d="M126.3 246.8L126.3 246.8L117.0 246.8Q116.7 245.0 115.9 243.6Q115.1 242.2 113.9 241.2Q112.7 240.2 111.0 239.6Q109.4 239.1 107.6 239.1L107.6 239.1Q104.2 239.1 101.7 240.8Q99.1 242.4 97.8 245.6Q96.4 248.8 96.4 253.3L96.4 253.3Q96.4 258.0 97.8 261.2Q99.2 264.4 101.7 266.0Q104.2 267.6 107.5 267.6L107.5 267.6Q109.4 267.6 110.9 267.1Q112.5 266.6 113.8 265.7Q115.0 264.7 115.8 263.4Q116.6 262.0 117.0 260.2L117.0 260.2L126.3 260.3Q125.9 263.3 124.5 266.1Q123.1 268.9 120.6 271.0Q118.2 273.2 114.9 274.5Q111.5 275.8 107.4 275.8L107.4 275.8Q101.5 275.8 96.9 273.1Q92.3 270.5 89.7 265.5Q87.0 260.5 87.0 253.3L87.0 253.3Q87.0 246.2 89.7 241.2Q92.4 236.2 97.0 233.6Q101.6 230.9 107.4 230.9L107.4 230.9Q111.1 230.9 114.4 232.0Q117.6 233.1 120.2 235.1Q122.7 237.1 124.3 240.1Q125.8 243.0 126.3 246.8ZM132.8 231.5L141.8 231.5L141.8 275.2L132.8 275.2L132.8 231.5ZM158.4 275.8L158.4 275.8Q155.3 275.8 152.8 274.7Q150.4 273.6 149.0 271.4Q147.5 269.3 147.5 266.0L147.5 266.0Q147.5 263.3 148.5 261.4Q149.5 259.6 151.3 258.5Q153.0 257.3 155.2 256.8Q157.4 256.2 159.8 255.9L159.8 255.9Q162.7 255.6 164.4 255.4Q166.2 255.1 167.0 254.6Q167.8 254.0 167.8 253.0L167.8 253.0L167.8 252.9Q167.8 250.8 166.5 249.7Q165.2 248.6 162.9 248.6L162.9 248.6Q160.4 248.6 159 249.7Q157.6 250.8 157.1 252.4L157.1 252.4L148.7 251.7Q149.3 248.7 151.2 246.6Q153.1 244.4 156.0 243.2Q159.0 242.0 162.9 242.0L162.9 242.0Q165.7 242.0 168.2 242.6Q170.7 243.3 172.6 244.6Q174.6 246.0 175.7 248.1Q176.8 250.2 176.8 253.1L176.8 253.1L176.8 275.2L168.2 275.2L168.2 270.6L168.0 270.6Q167.2 272.2 165.9 273.3Q164.5 274.5 162.7 275.1Q160.8 275.8 158.4 275.8ZM161.0 269.5L161.0 269.5Q163.0 269.5 164.5 268.7Q166.1 267.9 166.9 266.6Q167.8 265.2 167.8 263.5L167.8 263.5L167.8 260.0Q167.4 260.3 166.7 260.5Q165.9 260.7 165.0 260.9Q164.1 261.1 163.2 261.2Q162.3 261.4 161.5 261.5L161.5 261.5Q159.9 261.7 158.7 262.2Q157.5 262.7 156.9 263.6Q156.2 264.4 156.2 265.7L156.2 265.7Q156.2 267.6 157.6 268.5Q158.9 269.5 161.0 269.5ZM193.0 275.2L183.9 275.2L183.9 242.4L192.7 242.4L192.7 248.1L193.0 248.1Q193.9 245.1 196.0 243.5Q198.1 242.0 200.9 242.0L200.9 242.0Q201.6 242.0 202.4 242.0Q203.1 242.1 203.7 242.3L203.7 242.3L203.7 250.3Q203.1 250.1 202.0 250.0Q200.8 249.8 199.9 249.8L199.9 249.8Q197.9 249.8 196.3 250.7Q194.8 251.6 193.9 253.1Q193.0 254.6 193.0 256.6L193.0 256.6L193.0 275.2ZM222.6 258.9L216.6 265.7L216.7 254.9L218.0 254.9L228.5 242.4L238.9 242.4L224.8 258.9L222.6 258.9ZM217.5 275.2L208.4 275.2L208.4 231.5L217.5 231.5L217.5 275.2ZM239.5 275.2L228.9 275.2L219.2 260.9L225.3 254.5L239.5 275.2Z M266.6 275.8L266.6 275.8Q263.4 275.8 261.0 274.7Q258.5 273.6 257.1 271.4Q255.7 269.3 255.7 266.0L255.7 266.0Q255.7 263.3 256.7 261.4Q257.7 259.6 259.4 258.5Q261.1 257.3 263.4 256.8Q265.6 256.2 268.0 255.9L268.0 255.9Q270.8 255.6 272.6 255.4Q274.3 255.1 275.1 254.6Q275.9 254.0 275.9 253.0L275.9 253.0L275.9 252.9Q275.9 250.8 274.6 249.7Q273.4 248.6 271.1 248.6L271.1 248.6Q268.6 248.6 267.2 249.7Q265.7 250.8 265.2 252.4L265.2 252.4L256.8 251.7Q257.5 248.7 259.4 246.6Q261.2 244.4 264.2 243.2Q267.2 242.0 271.1 242.0L271.1 242.0Q273.8 242.0 276.3 242.6Q278.8 243.3 280.8 244.6Q282.7 246.0 283.9 248.1Q285.0 250.2 285.0 253.1L285.0 253.1L285.0 275.2L276.4 275.2L276.4 270.6L276.1 270.6Q275.3 272.2 274.0 273.3Q272.7 274.5 270.8 275.1Q269.0 275.8 266.6 275.8ZM269.2 269.5L269.2 269.5Q271.2 269.5 272.7 268.7Q274.2 267.9 275.1 266.6Q276.0 265.2 276.0 263.5L276.0 263.5L276.0 260.0Q275.5 260.3 274.8 260.5Q274.1 260.7 273.2 260.9Q272.2 261.1 271.3 261.2Q270.4 261.4 269.7 261.5L269.7 261.5Q268.1 261.7 266.9 262.2Q265.7 262.7 265.0 263.6Q264.4 264.4 264.4 265.7L264.4 265.7Q264.4 267.6 265.7 268.5Q267.1 269.5 269.2 269.5ZM301.1 256.2L301.1 256.2L301.1 275.2L292.0 275.2L292.0 242.4L300.7 242.4L300.7 248.2L301.1 248.2Q302.2 245.4 304.7 243.7Q307.3 242.0 310.9 242.0L310.9 242.0Q314.3 242.0 316.9 243.5Q319.4 245.0 320.8 247.7Q322.2 250.5 322.2 254.3L322.2 254.3L322.2 275.2L313.1 275.2L313.1 255.9Q313.2 252.9 311.6 251.2Q310.0 249.5 307.3 249.5L307.3 249.5Q305.5 249.5 304.1 250.3Q302.7 251.1 301.9 252.6Q301.1 254.1 301.1 256.2ZM341.4 275.7L341.4 275.7Q337.7 275.7 334.7 273.8Q331.6 271.8 329.9 268.1Q328.1 264.3 328.1 258.8L328.1 258.8Q328.1 253.2 329.9 249.5Q331.8 245.7 334.8 243.9Q337.8 242.0 341.4 242.0L341.4 242.0Q344.1 242.0 346.0 242.9Q347.8 243.9 349.0 245.2Q350.1 246.6 350.7 247.9L350.7 247.9L351.0 247.9L351.0 231.5L360.0 231.5L360.0 275.2L351.1 275.2L351.1 269.9L350.7 269.9Q350.1 271.3 348.9 272.6Q347.7 273.9 345.9 274.8Q344.0 275.7 341.4 275.7ZM344.3 268.5L344.3 268.5Q346.5 268.5 348.0 267.3Q349.5 266.1 350.3 263.9Q351.2 261.7 351.2 258.8L351.2 258.8Q351.2 255.9 350.4 253.7Q349.5 251.6 348.0 250.4Q346.5 249.2 344.3 249.2L344.3 249.2Q342.0 249.2 340.5 250.4Q339.0 251.7 338.2 253.8Q337.4 256.0 337.4 258.8L337.4 258.8Q337.4 261.7 338.2 263.8Q339.0 266.0 340.5 267.2Q342.0 268.5 344.3 268.5Z M400.0 241.5L389.1 275.2L379.2 275.2L394.2 231.5L406.1 231.5L421.2 275.2L411.3 275.2L400.4 241.5L400.0 241.5ZM388.5 265.2L388.5 258.0L411.8 258.0L411.8 265.2L388.5 265.2ZM435.3 275.2L426.3 275.2L426.3 242.4L434.9 242.4L434.9 248.2L435.3 248.2Q436.3 245.3 438.7 243.7Q441.1 242.0 444.4 242.0L444.4 242.0Q447.8 242.0 450.1 243.7Q452.5 245.4 453.3 248.2L453.3 248.2L453.6 248.2Q454.6 245.4 457.3 243.7Q459.9 242.0 463.5 242.0L463.5 242.0Q468.1 242.0 470.9 244.9Q473.8 247.8 473.8 253.2L473.8 253.2L473.8 275.2L464.8 275.2L464.8 254.9Q464.8 252.2 463.3 250.8Q461.9 249.5 459.7 249.5L459.7 249.5Q457.2 249.5 455.8 251.1Q454.4 252.6 454.4 255.2L454.4 255.2L454.4 275.2L445.6 275.2L445.6 254.7Q445.6 252.3 444.3 250.9Q442.9 249.5 440.7 249.5L440.7 249.5Q439.1 249.5 437.9 250.2Q436.7 251.0 436.0 252.4Q435.3 253.7 435.3 255.5L435.3 255.5L435.3 275.2ZM485.4 287.4L485.4 287.4Q483.7 287.4 482.1 287.2Q480.6 286.9 479.7 286.5L479.7 286.5L481.7 279.7Q483.3 280.2 484.6 280.3Q485.9 280.3 486.8 279.7Q487.8 279.0 488.4 277.5L488.4 277.5L488.9 276.1L477.2 242.4L486.7 242.4L493.5 266.5L493.8 266.5L500.7 242.4L510.3 242.4L497.6 278.7Q496.6 281.3 495.1 283.3Q493.5 285.3 491.1 286.4Q488.7 287.4 485.4 287.4Z M548.9 275.2L530.2 275.2L530.2 231.5L547.7 231.5Q552.5 231.5 555.7 233.0Q558.9 234.4 560.5 236.9Q562.2 239.4 562.2 242.7L562.2 242.7Q562.2 245.3 561.1 247.2Q560.1 249.1 558.3 250.3Q556.6 251.6 554.3 252.1L554.3 252.1L554.3 252.5Q556.8 252.6 559.0 253.9Q561.1 255.2 562.5 257.6Q563.9 259.9 563.9 263.1L563.9 263.1Q563.9 266.6 562.2 269.3Q560.4 272.0 557.1 273.6Q553.8 275.2 548.9 275.2L548.9 275.2ZM539.4 256.0L539.4 267.6L547.0 267.6Q550.8 267.6 552.6 266.1Q554.3 264.7 554.3 262.2L554.3 262.2Q554.3 260.4 553.5 259.0Q552.6 257.6 551.0 256.8Q549.4 256.0 547.2 256.0L547.2 256.0L539.4 256.0ZM539.4 239.0L539.4 249.8L546.3 249.8Q548.2 249.8 549.6 249.1Q551.1 248.4 552.0 247.2Q552.9 246.0 552.9 244.2L552.9 244.2Q552.9 241.9 551.2 240.4Q549.5 239.0 546.4 239.0L546.4 239.0L539.4 239.0ZM584.5 275.8L584.5 275.8Q579.5 275.8 575.9 273.7Q572.3 271.6 570.3 267.8Q568.4 264.0 568.4 258.9L568.4 258.9Q568.4 253.9 570.3 250.1Q572.3 246.2 575.9 244.1Q579.5 242.0 584.5 242.0L584.5 242.0Q589.4 242.0 593.1 244.1Q596.7 246.2 598.6 250.1Q600.6 253.9 600.6 258.9L600.6 258.9Q600.6 264.0 598.6 267.8Q596.7 271.6 593.1 273.7Q589.4 275.8 584.5 275.8ZM584.5 268.8L584.5 268.8Q586.8 268.8 588.3 267.5Q589.8 266.2 590.6 264.0Q591.4 261.7 591.4 258.9L591.4 258.9Q591.4 256.0 590.6 253.8Q589.8 251.5 588.3 250.2Q586.8 248.9 584.5 248.9L584.5 248.9Q582.2 248.9 580.7 250.2Q579.1 251.5 578.4 253.8Q577.6 256.0 577.6 258.9L577.6 258.9Q577.6 261.7 578.4 264.0Q579.1 266.2 580.7 267.5Q582.2 268.8 584.5 268.8ZM615.6 256.2L615.6 256.2L615.6 275.2L606.5 275.2L606.5 242.4L615.2 242.4L615.2 248.2L615.5 248.2Q616.6 245.4 619.2 243.7Q621.7 242.0 625.4 242.0L625.4 242.0Q628.8 242.0 631.3 243.5Q633.9 245.0 635.3 247.7Q636.7 250.5 636.7 254.3L636.7 254.3L636.7 275.2L627.6 275.2L627.6 255.9Q627.6 252.9 626.1 251.2Q624.5 249.5 621.8 249.5L621.8 249.5Q620.0 249.5 618.6 250.3Q617.2 251.1 616.4 252.6Q615.6 254.1 615.6 256.2ZM652.9 256.2L652.9 256.2L652.9 275.2L643.8 275.2L643.8 242.4L652.5 242.4L652.5 248.2L652.8 248.2Q653.9 245.4 656.5 243.7Q659.0 242.0 662.7 242.0L662.7 242.0Q666.1 242.0 668.6 243.5Q671.2 245.0 672.6 247.7Q674.0 250.5 674.0 254.3L674.0 254.3L674.0 275.2L664.9 275.2L664.9 255.9Q664.9 252.9 663.4 251.2Q661.8 249.5 659.1 249.5L659.1 249.5Q657.3 249.5 655.9 250.3Q654.5 251.1 653.7 252.6Q652.9 254.1 652.9 256.2ZM696.0 275.8L696.0 275.8Q691.0 275.8 687.4 273.7Q683.7 271.7 681.8 267.9Q679.8 264.1 679.8 258.9L679.8 258.9Q679.8 253.9 681.8 250.1Q683.7 246.3 687.3 244.1Q690.9 242.0 695.7 242.0L695.7 242.0Q698.9 242.0 701.7 243.0Q704.5 244.1 706.6 246.1Q708.7 248.2 709.9 251.3Q711.1 254.5 711.1 258.6L711.1 258.6L711.1 261.1L683.4 261.1L683.4 255.5L702.5 255.5Q702.5 253.5 701.7 252.0Q700.8 250.5 699.3 249.6Q697.8 248.8 695.8 248.8L695.8 248.8Q693.8 248.8 692.2 249.7Q690.6 250.7 689.7 252.3Q688.8 253.9 688.8 255.8L688.8 255.8L688.8 261.1Q688.8 263.6 689.7 265.3Q690.6 267.1 692.2 268.1Q693.9 269.0 696.2 269.0L696.2 269.0Q697.7 269.0 699.0 268.6Q700.2 268.2 701.1 267.3Q702.0 266.5 702.5 265.2L702.5 265.2L710.9 265.8Q710.2 268.8 708.3 271.1Q706.3 273.3 703.2 274.6Q700.1 275.8 696.0 275.8ZM726.1 275.2L717.0 275.2L717.0 242.4L725.8 242.4L725.8 248.1L726.1 248.1Q727.0 245.1 729.1 243.5Q731.2 242.0 734.0 242.0L734.0 242.0Q734.7 242.0 735.5 242.0Q736.2 242.1 736.8 242.3L736.8 242.3L736.8 250.3Q736.2 250.1 735.1 250.0Q733.9 249.8 733.0 249.8L733.0 249.8Q731.0 249.8 729.4 250.7Q727.9 251.6 727.0 253.1Q726.1 254.6 726.1 256.6L726.1 256.6L726.1 275.2Z "></path>
</svg>